<svg width="180" height="180" viewBox="0 0 180 180" fill="none" xmlns="http://www.w3.org/2000/svg">
<g clip-path="url(#clip0_4720_3922)">
<path d="M33.2403 89.0101C32.2345 91.2621 31.8849 91.3715 29.4581 91.3715C27.7092 91.3715 27.3585 91.1967 27.0968 90.8899C26.7687 90.519 26.7247 89.7318 26.7247 88.6379V80.9632C26.7247 78.6898 26.9208 78.6244 27.9493 78.4709L28.4298 78.3828C28.6058 78.2735 28.5832 77.8371 28.3869 77.7492C27.4238 77.7931 26.4405 77.8146 25.4786 77.8146C24.4728 77.8146 23.4894 77.7931 22.3956 77.7492C22.1995 77.8371 22.1995 78.2735 22.3516 78.3828L22.9639 78.4709C23.9923 78.6244 24.1886 78.6898 24.1886 80.9632V89.0969C24.1886 91.3715 23.9923 91.4368 22.9639 91.5676L22.3076 91.6771C22.1114 91.7864 22.1768 92.2239 22.3516 92.312C23.2707 92.268 24.3634 92.2454 25.4786 92.2454H27.752C30.2013 92.2454 32.0823 92.268 33.0002 92.312C33.2629 91.721 33.7444 90.0588 33.918 89.1408C33.8098 88.9661 33.4591 88.9007 33.2403 89.0101Z" fill="#1D1D1D"/>
<path d="M33.789 76.9406C32.8057 76.9406 32.543 77.5956 32.543 77.9678C32.543 78.4493 32.8924 78.7121 33.2206 78.7549C33.7462 78.8203 34.4013 79.1712 34.4013 79.8914C34.4013 80.8547 33.5702 81.4885 32.631 81.8819C32.5644 82.0568 32.6096 82.3195 32.7843 82.4502C34.2919 82.0782 35.7794 80.8547 35.7794 79.1924C35.7794 77.9905 34.8614 76.9406 33.789 76.9406Z" fill="#1D1D1D"/>
<path d="M48.3682 91.8355C42.9843 91.8355 41.0155 86.5884 41.0155 82.5423C41.0155 76.557 44.7061 74.6166 47.5491 74.6166C52.7686 74.6166 54.7638 79.4819 54.7638 83.9917C54.7638 89.3755 51.6485 91.8355 48.3682 91.8355ZM48.0126 73.77C42.3827 73.77 38.2832 77.9517 38.2832 83.4173C38.2832 88.3374 41.9452 92.6831 48.0126 92.6831C53.2881 92.6831 57.4972 88.6644 57.4972 83.1439C57.4972 78.3345 54.3262 73.77 48.0126 73.77Z" fill="#1D1D1D"/>
<path d="M73.0175 88.4628C72.4064 89.8849 71.2032 91.7207 68.4483 91.7207C65.628 91.7207 62.7196 89.4473 62.7196 84.79C62.7196 80.3075 65.5175 78.3397 68.2948 78.3397C71.1817 78.3397 72.165 80.1542 72.536 81.5324C72.6892 81.6856 73.0829 81.663 73.2364 81.4882C73.0175 79.8699 72.9747 78.5801 72.9308 78.0771C72.7334 78.0332 72.5811 78.0117 72.3185 77.9463C71.2898 77.6834 69.7823 77.4648 68.535 77.4648C66.327 77.4648 64.119 78.0984 62.501 79.323C60.8827 80.5691 59.7461 82.5595 59.7461 85.117C59.7461 87.9825 61.0801 89.9716 62.8505 91.1309C64.4249 92.1583 66.2831 92.5957 68.4483 92.5957C69.8692 92.5957 71.3779 92.2236 71.8594 92.0702C72.0996 92.0048 72.3612 91.9168 72.6238 91.8741C72.9308 91.4579 73.5205 90.0156 73.6737 88.5508C73.5644 88.3535 73.2149 88.2666 73.0175 88.4628Z" fill="#1D1D1D"/>
<path d="M78.2042 91.1309C79.7784 92.1582 81.6368 92.5957 83.8018 92.5957C85.2227 92.5957 86.7315 92.2236 87.2118 92.0702C87.4534 92.0048 87.7148 91.9168 87.9776 91.8741C88.2843 91.4579 88.8742 90.0156 89.0275 88.5508C88.9182 88.3534 88.5684 88.2666 88.371 88.4629C87.7599 89.8849 86.5567 91.7206 83.8018 91.7206C80.9815 91.7206 78.0732 89.4473 78.0732 84.79C78.0732 80.3075 80.871 78.3397 83.6486 78.3397C86.5354 78.3397 87.5188 80.1542 87.8907 81.5324C88.043 81.6856 88.4378 81.663 88.5899 81.4882C88.371 79.8699 88.3285 78.5801 88.2843 78.0771C88.0869 78.0332 87.9349 78.0117 87.672 77.9463C86.6436 77.6834 85.1358 77.4648 83.8899 77.4648C81.6808 77.4648 79.4728 78.0984 77.8545 79.323C76.2364 80.5691 75.0996 82.5595 75.0996 85.117C75.0996 87.9825 76.4336 89.9716 78.2042 91.1309Z" fill="#1D1D1D"/>
<path d="M96.9085 92.311C97.0835 92.2243 97.1047 91.8307 96.9527 91.6774L96.4709 91.6119C95.4437 91.4811 95.2463 91.4145 95.2463 89.0972V80.9633C95.2463 78.646 95.4437 78.5806 96.4709 78.4486L96.9527 78.3832C97.1047 78.2297 97.0835 77.8375 96.9085 77.7494C95.9455 77.7924 94.9622 77.8148 94.0004 77.8148C92.9944 77.8148 92.0111 77.7924 91.0481 77.7494C90.8731 77.8375 90.8518 78.2297 91.0053 78.3832L91.4856 78.4486C92.5141 78.5806 92.7103 78.646 92.7103 80.9633V89.0972C92.7103 91.4145 92.5141 91.4811 91.4856 91.6119L91.0053 91.6774C90.8518 91.8307 90.8731 92.2243 91.0481 92.311C92.0111 92.2683 93.0383 92.2457 94.0004 92.2457C94.9622 92.2457 95.9455 92.2683 96.9085 92.311Z" fill="#1D1D1D"/>
<path d="M104.427 78.6896C104.996 78.6896 105.018 78.7338 105.018 79.6517V89.0969C105.018 91.4155 104.822 91.4808 103.793 91.5676L102.874 91.6782C102.722 91.7864 102.743 92.2239 102.919 92.312C104.318 92.2679 105.346 92.2465 106.308 92.2465C107.27 92.2465 108.253 92.2679 109.522 92.312C109.698 92.2239 109.719 91.8304 109.566 91.6782L108.779 91.5902C107.75 91.4808 107.554 91.4155 107.554 89.0969V79.6517C107.554 78.7338 107.575 78.6896 108.145 78.6896H109.391C111.73 78.6896 112.146 79.1048 112.43 80.8109C112.626 80.963 112.998 80.9203 113.108 80.7444C113.042 80.0451 113.217 78.1642 113.436 77.2676C113.392 77.2022 113.282 77.1594 113.151 77.1594C113.064 77.1594 112.977 77.2022 112.889 77.2463C112.626 77.7491 112.298 77.8145 111.227 77.8145H102.306C100.819 77.8145 100.514 77.7932 100.403 77.2463C100.36 77.1809 100.273 77.1594 100.186 77.1594C100.076 77.1594 99.9882 77.1809 99.9455 77.2463C99.792 78.0119 99.464 79.3674 99.0918 80.5481C99.1796 80.7668 99.6387 80.8322 99.792 80.7014C100.601 78.9298 101.192 78.6896 103.202 78.6896H104.427Z" fill="#1D1D1D"/>
<path d="M119.931 85.9052H117.656C117.132 85.9052 117.066 85.9052 117.307 85.2703L118.224 82.7128C118.618 81.6856 118.794 81.1384 118.881 80.9852H118.925C119.034 81.1384 119.165 81.5536 119.537 82.7128L120.455 85.3369C120.63 85.8612 120.543 85.9052 119.931 85.9052ZM126.643 91.6778L126.314 91.6112C125.2 91.4151 125.091 91.2616 124.588 89.7968L121.44 80.6357C121.09 79.6512 120.805 78.6239 120.455 77.6394C120.367 77.5299 120.259 77.4647 120.084 77.4647C120.04 77.4647 119.318 78.3611 118.553 78.5144C118.618 78.8865 118.422 79.411 118.138 80.1112L115.143 87.8944C114.683 89.0751 114.333 89.9929 114.07 90.5613C113.743 91.2842 113.502 91.4804 112.868 91.5684L112.212 91.6778C112.058 91.8739 112.081 92.2021 112.234 92.3115C112.999 92.2675 113.677 92.2461 114.398 92.2461C115.295 92.2675 116.017 92.2675 116.717 92.3115C116.892 92.2235 116.913 91.8299 116.76 91.6778L116.126 91.5684C115.318 91.4578 115.229 91.3925 115.667 90.1036L116.563 87.4795C116.76 86.8885 116.738 86.8885 117.307 86.8885H120.215C120.827 86.8885 120.893 86.8885 121.111 87.4795L122.139 90.4531C122.423 91.3925 122.358 91.5244 121.57 91.6112L121.09 91.6778C120.958 91.8073 120.979 92.2021 121.156 92.3115C121.92 92.2888 122.882 92.2461 123.822 92.2461C124.96 92.2461 125.769 92.2675 126.665 92.3115C126.817 92.2021 126.817 91.8299 126.643 91.6778Z" fill="#1D1D1D"/>
<path d="M143.423 77.7497C142.636 77.7924 142.068 77.8151 141.127 77.8151C140.275 77.8151 139.466 77.7924 138.614 77.7497C138.395 77.8151 138.373 78.23 138.57 78.3835L139.073 78.4489C139.62 78.5367 139.969 78.6676 140.166 78.9958C140.559 79.6521 140.58 81.6626 140.58 83.3034V87.5671C140.58 87.9168 140.58 88.0261 140.515 88.0915C140.296 87.9607 138.263 85.6433 137.345 84.6375L135.159 82.275C134.393 81.4451 132.01 78.6902 131.638 77.7497C131.114 77.7924 130.588 77.8151 130.129 77.8151C129.582 77.8151 128.38 77.8377 127.549 77.7497C127.33 77.8151 127.309 78.2527 127.462 78.3835L127.791 78.4489C128.096 78.5141 128.708 78.6902 128.949 78.8862C129.693 79.52 129.67 79.871 129.67 81.5759V86.7575C129.67 88.4862 129.67 90.3874 129.386 91.0651C129.233 91.4147 128.839 91.5027 128.424 91.5682L127.943 91.6775C127.768 91.8309 127.812 92.2031 127.987 92.3112C128.751 92.2684 129.342 92.2458 130.261 92.2458C131.091 92.2458 131.945 92.2684 132.753 92.3112C132.972 92.2458 132.994 91.8309 132.797 91.6775L132.316 91.612C131.77 91.5253 131.398 91.3933 131.201 91.0651C130.83 90.4088 130.807 88.3983 130.807 86.7575V82.4937C130.807 81.3355 130.807 81.0942 130.874 81.0942C131.244 81.4224 131.945 82.2535 133.366 83.8504L138.482 89.6882C140.056 91.4813 140.691 92.2245 141.041 92.6834C141.302 92.7048 141.609 92.6179 141.784 92.3778C141.718 91.8749 141.718 89.1853 141.718 88.529V83.3034C141.718 81.5759 141.718 79.6733 142.024 78.9958C142.177 78.6461 142.548 78.5594 142.964 78.4928L143.467 78.3835C143.642 78.23 143.598 77.859 143.423 77.7497Z" fill="#1D1D1D"/>
<path d="M156.302 89.0104C155.536 90.7808 155.054 91.4145 152.278 91.3717C150.441 91.3717 150.069 91.1958 149.808 90.8902C149.479 90.5181 149.435 89.7322 149.435 88.6157V85.8394C149.435 85.2925 149.457 85.2485 149.96 85.2485H151.01C152.912 85.2485 153.284 85.2925 153.436 86.2115L153.59 87.0854C153.764 87.2175 154.18 87.2175 154.29 87.064C154.267 86.3637 154.225 85.5991 154.225 84.7681C154.225 83.9596 154.267 83.1713 154.29 82.5815C154.18 82.4068 153.764 82.4068 153.59 82.5601L153.436 83.3032C153.284 84.2438 152.912 84.2651 151.01 84.2651H149.96C149.457 84.2651 149.435 84.2438 149.435 83.6754V79.9801C149.435 78.734 149.435 78.6898 150.376 78.6898H151.841C152.432 78.6898 153.087 78.734 153.59 78.8863C154.29 79.0608 154.618 79.608 154.968 80.8765C155.143 81.0074 155.58 80.9634 155.667 80.7887C155.536 79.8481 155.404 78.1205 155.317 77.7495C155.033 77.7925 153.764 77.8149 152.365 77.8149H148.189C147.227 77.8149 146.2 77.7925 145.369 77.7495C145.193 77.8376 145.172 78.2298 145.325 78.3833L145.674 78.4272C146.703 78.5807 146.899 78.6459 146.899 80.9634V89.0971C146.899 91.4145 146.703 91.4811 145.674 91.5905L144.866 91.6773C144.713 91.8307 144.735 92.2243 144.909 92.311C145.893 92.2682 147.227 92.2456 148.189 92.2456H150.683C153.24 92.2456 155.121 92.2682 156.082 92.311C156.388 91.7213 156.87 90.0591 157.001 89.1411C156.87 88.9224 156.498 88.857 156.302 89.0104Z" fill="#1D1D1D"/>
<path d="M78.0168 101.079C77.8635 101.178 77.2555 101.275 76.9142 101.275C76.8705 101.276 76.8082 101.276 76.7459 101.274V101.27C76.7459 100.124 76.7489 98.7289 76.7565 98.5737C76.757 98.5591 76.7581 98.5471 76.7593 98.5369C76.8106 98.5209 76.8991 98.5015 76.9808 98.5015C77.5287 98.5015 77.9004 98.6198 78.1864 98.8848C78.443 99.1226 78.5795 99.5056 78.5795 99.9923C78.5795 100.496 78.2848 100.887 78.0168 101.079ZM81.0973 104.803C81.0194 104.803 80.7379 104.774 80.3773 104.414C80.1492 104.186 79.9241 103.914 79.5999 103.476C79.304 103.075 78.6017 101.974 78.3925 101.567C78.5748 101.491 78.8124 101.374 78.9732 101.232C79.1996 101.054 79.6722 100.683 79.6722 99.8283C79.6722 99.2399 79.3947 98.7027 78.9116 98.3539C78.5054 98.0592 78.039 97.9335 77.3511 97.9335C77.1716 97.9335 76.9818 97.9465 76.7867 97.96C76.3617 97.9897 75.8868 97.9829 75.6185 97.96C75.4688 97.9467 75.2966 97.9219 75.1535 97.98C75.0898 98.0058 75.0326 98.0512 75.001 98.112C74.949 98.2124 74.9849 98.34 75.0713 98.4082C75.1453 98.4667 75.2404 98.4899 75.3306 98.51C75.644 98.5622 75.6457 98.5913 75.6638 98.8694L75.6683 98.9402C75.6917 99.2956 75.7302 99.8901 75.7302 101.313C75.7302 103.053 75.7028 103.814 75.6759 104.324C75.6487 104.704 75.5852 104.716 75.3406 104.764C75.1734 104.803 74.9648 104.85 74.9648 105.059C74.9648 105.125 74.9929 105.338 75.3533 105.338C75.4447 105.338 75.5566 105.328 75.6865 105.317C75.8537 105.301 76.0535 105.283 76.2818 105.283C76.4797 105.283 76.6294 105.3 76.7605 105.314C76.8769 105.327 76.9808 105.338 77.089 105.338C77.4897 105.338 77.51 105.106 77.51 105.059C77.51 104.833 77.2701 104.789 77.1771 104.773C76.8618 104.72 76.8403 104.655 76.8221 104.6C76.8018 104.539 76.757 104.192 76.7459 103.667C76.7355 103.266 76.7447 102.13 76.7565 101.841C76.9929 101.838 77.1013 101.861 77.1716 101.881C77.2415 101.899 77.3114 101.964 77.4031 102.065C77.4519 102.125 77.6283 102.398 77.8154 102.686C78.1757 103.244 78.6697 104.009 79.028 104.465C79.4013 104.929 79.8911 105.403 80.693 105.403C80.9155 105.403 81.0791 105.384 81.1783 105.347C81.2435 105.323 81.4414 105.249 81.4414 105.07C81.4414 104.937 81.3233 104.803 81.0973 104.803Z" fill="#1D1D1D"/>
<path d="M87.9876 104.514C87.6596 104.755 87.3223 104.868 86.9275 104.868C86.139 104.868 85.4551 104.488 84.8955 103.738C84.4347 103.117 84.1372 102.259 84.1372 101.554C84.1372 100.568 84.4177 99.6777 84.9066 99.1098C85.228 98.7412 85.9 98.36 86.4687 98.36C87.1868 98.36 87.7698 98.6235 88.2509 99.165C88.8526 99.8477 89.2264 100.83 89.2264 101.729C89.2264 103.101 88.5857 104.068 87.9876 104.514ZM86.6876 97.7918C85.9066 97.7918 85.0301 98.083 84.4569 98.5317C83.4418 99.3041 82.9688 100.261 82.9688 101.543C82.9688 103.677 84.6917 105.48 86.7306 105.48C87.2047 105.48 87.7207 105.361 88.2218 105.135C89.025 104.781 90.3842 103.662 90.3842 101.718C90.3842 99.5896 88.6917 97.7918 86.6876 97.7918Z" fill="#1D1D1D"/>
<path d="M98.7271 97.9635C98.5996 97.9753 98.4562 97.9883 98.3228 97.9883C98.2123 97.9883 98.0463 97.9745 97.8807 97.9616C97.7024 97.9474 97.5249 97.9335 97.4061 97.9335C97.0495 97.9335 96.9966 98.1014 96.9966 98.201C96.9966 98.3524 97.1137 98.4522 97.3333 98.4951C97.7112 98.5925 97.7282 98.6315 97.7282 98.7035C97.7282 98.8426 97.6472 99.1541 97.5208 99.4988C97.3607 99.9521 96.3774 102.48 95.9616 103.517C95.5155 102.419 94.4368 99.5976 94.262 99.0736C94.194 98.8684 94.1567 98.7553 94.1567 98.6487C94.1567 98.6209 94.2084 98.5529 94.3676 98.5321C94.4665 98.5167 94.7683 98.4704 94.7683 98.2119C94.7683 98.1493 94.7386 97.9445 94.3588 97.9445C94.2779 97.9445 94.1508 97.9521 94.0034 97.9616C93.8126 97.9736 93.5852 97.9883 93.3873 97.9883C93.3231 97.9883 93.1812 97.9786 93.0298 97.9689C92.8452 97.9571 92.6477 97.9445 92.5462 97.9445C92.1667 97.9445 92.1367 98.1493 92.1367 98.2119C92.1367 98.3037 92.1858 98.466 92.5188 98.5219C92.7403 98.5524 92.8789 98.6695 92.9819 98.9135C93.4525 100.021 95.0437 104.128 95.3892 105.152L95.409 105.221C95.442 105.334 95.4964 105.523 95.7018 105.523C95.8404 105.523 95.9493 105.405 95.975 105.239C96.0036 105.125 96.1467 104.72 96.4027 104.077C96.8929 102.885 97.293 101.9 97.6007 101.143C97.9426 100.301 98.1691 99.7421 98.2779 99.4955C98.6636 98.6275 98.7708 98.5973 99.0497 98.5177C99.1481 98.4929 99.4102 98.4274 99.4102 98.1904C99.4102 97.9783 99.2216 97.9203 98.7271 97.9635Z" fill="#1D1D1D"/>
<path d="M116.214 97.9553C116.165 97.9553 116.097 97.96 116.014 97.9664C115.809 97.9815 115.458 97.9915 115.13 97.9705C114.648 97.9402 114.374 97.9844 114.374 98.2228C114.374 98.4274 114.574 98.4774 114.733 98.5171C115.002 98.5867 115.138 98.6215 115.138 99.1642L115.16 101C115.172 101.913 115.185 102.894 115.19 103.442C113.978 102.085 111.392 99.1497 110.738 98.3058C110.578 98.1008 110.49 97.9882 110.328 97.9882C110.109 97.9882 109.853 97.9706 109.63 97.9556C109.452 97.9438 109.295 97.9336 109.192 97.9336C108.899 97.9336 108.75 98.0269 108.75 98.2118C108.75 98.4559 109.008 98.493 109.126 98.5098C109.371 98.5507 109.465 98.5964 109.571 98.6777C109.62 98.7162 109.689 98.7693 109.689 99.315C109.689 100.011 109.6 103.712 109.57 104.081C109.52 104.659 109.461 104.675 109.128 104.769C108.982 104.809 108.783 104.863 108.783 105.07C108.783 105.192 108.85 105.338 109.17 105.338C109.199 105.338 109.259 105.332 109.339 105.323C109.607 105.294 110.126 105.285 110.444 105.316C111.055 105.376 111.164 105.223 111.164 105.07C111.164 104.849 110.947 104.79 110.821 104.755C110.614 104.697 110.452 104.601 110.413 104.515C110.341 104.361 110.311 104.117 110.311 103.672C110.311 103.433 110.32 102.375 110.328 101.335C110.334 100.654 110.339 99.9803 110.343 99.5505C110.94 100.247 111.674 101.097 112.39 101.926C113.559 103.279 114.664 104.556 115.064 105.046L115.11 105.101C115.202 105.215 115.293 105.337 115.401 105.436C115.48 105.509 115.601 105.551 115.705 105.504C115.788 105.467 115.835 105.379 115.853 105.293C115.873 105.192 115.863 105.088 115.859 104.986C115.845 104.624 115.849 104.24 115.854 103.756C115.856 103.47 115.859 103.149 115.859 102.777C115.859 101.617 115.884 99.3023 115.93 98.9594C115.967 98.711 115.983 98.6081 116.267 98.5133L116.317 98.4956C116.413 98.4623 116.591 98.4005 116.591 98.2118C116.591 98.0949 116.526 97.9553 116.214 97.9553Z" fill="#1D1D1D"/>
<path d="M125.125 103.263C124.917 103.263 124.854 103.487 124.824 103.598C124.677 104.036 124.421 104.367 124.059 104.581C123.76 104.762 123.373 104.847 122.841 104.847C122.318 104.847 121.574 104.651 121.058 104.103C120.603 103.613 120.073 102.658 120.073 101.576C120.073 100.559 120.453 99.6175 120.826 99.2146C121.175 98.8476 121.751 98.36 122.711 98.36C123.332 98.36 123.946 98.5609 124.286 98.8821C124.446 99.0127 124.655 99.3251 124.733 99.6555C124.803 99.8935 124.93 99.9431 125.026 99.9431C125.186 99.9431 125.293 99.7917 125.293 99.5662C125.293 99.5282 125.288 99.4608 125.283 99.3777C125.27 99.2026 125.25 98.9383 125.272 98.7475C125.272 98.6145 125.198 98.4799 125.082 98.4039L125.074 98.3989C124.678 98.1642 123.711 97.7918 122.798 97.7918C121.839 97.7918 120.84 98.1548 120.195 98.7397C119.32 99.532 118.895 100.499 118.895 101.696C118.895 102.663 119.384 103.743 119.859 104.23C120.432 104.812 121.284 105.48 122.798 105.48C123.782 105.48 124.463 105.163 125.072 104.806C125.153 104.745 125.21 104.663 125.237 104.557C125.242 104.522 125.256 104.454 125.273 104.37C125.338 104.049 125.392 103.772 125.392 103.629C125.392 103.376 125.258 103.263 125.125 103.263Z" fill="#1D1D1D"/>
<path d="M106.44 103.814C106.355 103.777 106.26 103.799 106.186 103.852C106.104 103.91 106.044 103.998 105.987 104.079L105.926 104.168C105.841 104.288 105.7 104.491 105.636 104.548C105.5 104.669 105.415 104.704 104.384 104.704C103.601 104.704 103.491 104.681 103.35 104.606C103.219 104.54 103.166 104.351 103.166 104.284C103.166 104.204 103.161 103.936 103.156 103.605C103.146 103.071 103.133 102.371 103.133 102.034V101.985C104.587 101.986 104.483 101.997 104.668 102.05C104.719 102.068 104.77 102.143 104.811 102.264C104.811 102.264 104.849 102.359 104.849 102.36C104.881 102.437 104.912 102.522 104.978 102.577C105.052 102.639 105.175 102.647 105.257 102.597C105.317 102.56 105.362 102.482 105.384 102.416C105.411 102.334 105.409 102.25 105.395 102.166C105.385 102.106 105.356 101.82 105.374 101.631C105.382 101.552 105.395 101.458 105.407 101.37C105.426 101.23 105.441 101.105 105.441 101.062C105.441 100.808 105.28 100.74 105.184 100.74C105.009 100.74 104.925 100.909 104.894 100.972C104.772 101.216 104.706 101.261 104.684 101.273C104.642 101.299 104.57 101.319 104.059 101.319H103.133V98.7797C103.133 98.6752 103.138 98.612 103.142 98.5733C103.519 98.555 104.958 98.561 105.213 98.6082C105.298 98.6224 105.427 98.6436 105.63 99.1256C105.662 99.2014 105.702 99.2841 105.765 99.3391C105.836 99.4008 105.951 99.4232 106.036 99.3781C106.11 99.3386 106.149 99.2538 106.164 99.1745C106.175 99.115 106.178 99.0475 106.164 98.988C106.125 98.8059 106.11 98.5785 106.1 98.4279L106.09 98.3001C106.052 98.0641 105.952 97.9444 105.792 97.9444C105.746 97.9444 105.699 97.9473 105.637 97.9508C105.535 97.9569 105.392 97.9662 105.138 97.9662C104.925 97.9662 104.442 97.9713 103.945 97.9765C103.419 97.9819 102.878 97.9881 102.625 97.9881C102.441 97.9881 102.288 97.9784 102.147 97.97C102.02 97.9624 101.903 97.9553 101.784 97.9553C101.575 97.9553 101.429 98.0606 101.429 98.2117C101.429 98.2989 101.47 98.4533 101.74 98.5077C102.006 98.5664 102.096 98.5865 102.096 99.1728C102.096 101.484 102.084 102.532 102.041 104.268C102.033 104.635 101.918 104.719 101.595 104.773C101.478 104.794 101.232 104.839 101.232 105.059C101.232 105.106 101.252 105.338 101.632 105.338C101.677 105.338 101.787 105.331 101.926 105.321C102.15 105.305 102.456 105.283 102.68 105.283C103.098 105.283 103.592 105.293 104.118 105.303C104.72 105.315 105.361 105.327 105.978 105.327C106.072 105.327 106.205 105.287 106.3 105.096C106.354 104.991 106.407 104.792 106.469 104.562C106.497 104.458 106.526 104.351 106.553 104.259C106.574 104.189 106.594 104.118 106.59 104.044C106.585 103.95 106.531 103.856 106.44 103.814Z" fill="#1D1D1D"/>
<path d="M132.844 103.814C132.759 103.777 132.664 103.799 132.59 103.852C132.508 103.91 132.448 103.998 132.392 104.079L132.33 104.168C132.245 104.288 132.104 104.491 132.04 104.548C131.904 104.669 131.819 104.704 130.788 104.704C130.005 104.704 129.895 104.681 129.754 104.606C129.623 104.54 129.57 104.351 129.57 104.284C129.57 104.204 129.566 103.936 129.56 103.605C129.55 103.071 129.538 102.371 129.538 102.034V101.985C130.991 101.986 130.887 101.997 131.073 102.05C131.123 102.068 131.174 102.143 131.215 102.264C131.215 102.264 131.254 102.359 131.254 102.36C131.285 102.437 131.317 102.522 131.382 102.577C131.456 102.639 131.579 102.647 131.661 102.597C131.721 102.56 131.766 102.482 131.788 102.416C131.816 102.334 131.813 102.25 131.799 102.166C131.789 102.106 131.76 101.82 131.778 101.631C131.787 101.552 131.799 101.458 131.811 101.37C131.83 101.23 131.845 101.105 131.845 101.062C131.845 100.808 131.684 100.74 131.589 100.74C131.413 100.74 131.329 100.909 131.299 100.972C131.176 101.216 131.11 101.261 131.088 101.273C131.046 101.299 130.974 101.319 130.463 101.319H129.538V98.7797C129.538 98.6752 129.542 98.612 129.546 98.5733C129.923 98.555 131.362 98.561 131.617 98.6082C131.702 98.6224 131.831 98.6436 132.034 99.1256C132.067 99.2014 132.106 99.2841 132.169 99.3391C132.24 99.4008 132.355 99.4232 132.44 99.3781C132.515 99.3386 132.553 99.2538 132.568 99.1745C132.579 99.115 132.582 99.0475 132.569 98.988C132.529 98.8059 132.514 98.5785 132.504 98.4279L132.494 98.3001C132.456 98.0641 132.356 97.9444 132.196 97.9444C132.15 97.9444 132.103 97.9473 132.041 97.9508C131.94 97.9569 131.796 97.9662 131.542 97.9662C131.329 97.9662 130.846 97.9713 130.349 97.9765C129.824 97.9819 129.282 97.9881 129.029 97.9881C128.845 97.9881 128.692 97.9784 128.552 97.97C128.424 97.9624 128.308 97.9553 128.188 97.9553C127.979 97.9553 127.833 98.0606 127.833 98.2117C127.833 98.2989 127.874 98.4533 128.144 98.5077C128.41 98.5664 128.5 98.5865 128.5 99.1728C128.5 101.484 128.489 102.532 128.445 104.268C128.437 104.635 128.322 104.719 127.999 104.773C127.882 104.794 127.637 104.839 127.637 105.059C127.637 105.106 127.656 105.338 128.036 105.338C128.082 105.338 128.191 105.331 128.33 105.321C128.554 105.305 128.86 105.283 129.084 105.283C129.502 105.283 129.997 105.293 130.522 105.303C131.124 105.315 131.765 105.327 132.382 105.327C132.476 105.327 132.609 105.287 132.704 105.096C132.758 104.991 132.811 104.792 132.873 104.562C132.901 104.458 132.93 104.351 132.957 104.259C132.978 104.189 132.998 104.118 132.994 104.044C132.989 103.95 132.935 103.856 132.844 103.814Z" fill="#1D1D1D"/>
<path d="M70.6837 101.689C70.4078 101.877 69.9325 102.023 69.2236 101.761C69.2224 100.932 69.2177 99.8057 69.2146 99.1083L69.2262 98.4538C69.3194 98.4316 69.5062 98.4032 69.6661 98.4032C70.1261 98.4032 70.4704 98.5608 70.8223 98.9339C71.2851 99.397 71.309 100.106 71.309 100.243C71.309 101.062 70.997 101.476 70.6837 101.689ZM71.7924 98.6113C71.3387 98.1104 70.6107 97.846 69.6881 97.846C69.5827 97.846 69.3409 97.8658 69.1015 97.8863C68.9152 97.9019 68.7305 97.9177 68.6205 97.9223C68.3288 97.9333 68.015 97.9444 67.8535 97.9444C67.6386 97.9444 67.4766 98.0641 67.4766 98.2228C67.4766 98.3752 67.592 98.4715 67.832 98.5111C68.0917 98.539 68.0957 98.621 68.0998 98.6911C68.1196 98.8895 68.1756 100.334 68.1756 101.237C68.1756 102.919 68.1645 104.192 68.1534 104.446C68.139 104.685 68.116 104.709 67.8442 104.763C67.7493 104.783 67.4976 104.837 67.4976 105.059C67.4976 105.159 67.5495 105.327 67.8967 105.327C67.9491 105.327 68.0282 105.32 68.1231 105.311C68.2483 105.299 68.4056 105.283 68.5628 105.283C68.8408 105.283 69.0264 105.3 69.1915 105.314C69.3322 105.327 69.4592 105.338 69.6113 105.338C69.97 105.338 69.988 105.106 69.988 105.059C69.988 104.812 69.7015 104.775 69.5998 104.761C69.362 104.723 69.2928 104.697 69.2663 104.357C69.2467 104.081 69.2255 103.385 69.2243 102.256C69.4066 102.375 70.4234 102.767 71.4058 102.126C72.0878 101.681 72.4122 101.036 72.4122 100.178C72.4122 99.596 72.1787 99.0087 71.7924 98.6113Z" fill="#1D1D1D"/>
<path d="M51.4011 103.814C51.3158 103.777 51.2207 103.799 51.147 103.852C51.0651 103.91 51.0051 103.998 50.9482 104.079L50.8865 104.168C50.802 104.288 50.661 104.491 50.5963 104.548C50.4608 104.669 50.3757 104.704 49.3447 104.704C48.5619 104.704 48.4519 104.681 48.3104 104.606C48.1801 104.54 48.1269 104.351 48.1269 104.284C48.1269 104.204 48.1222 103.936 48.1163 103.605C48.1071 103.071 48.0943 102.371 48.0943 102.034V101.985C49.5473 101.986 49.4439 101.997 49.6293 102.05C49.6798 102.068 49.7311 102.143 49.7719 102.264C49.7719 102.264 49.8102 102.359 49.8104 102.36C49.8416 102.437 49.8732 102.522 49.9391 102.577C50.0123 102.639 50.1361 102.647 50.2182 102.597C50.278 102.56 50.3224 102.482 50.3443 102.416C50.3722 102.334 50.3694 102.25 50.3554 102.166C50.3455 102.106 50.3165 101.82 50.3347 101.631C50.3432 101.552 50.3561 101.458 50.3677 101.37C50.3868 101.23 50.402 101.105 50.402 101.062C50.402 100.808 50.2407 100.74 50.1453 100.74C49.9693 100.74 49.886 100.909 49.855 100.972C49.733 101.216 49.6664 101.261 49.6444 101.273C49.6031 101.299 49.5308 101.319 49.02 101.319H48.0943V98.7797C48.0943 98.6752 48.0983 98.612 48.1024 98.5733C48.4793 98.555 49.919 98.561 50.1736 98.6082C50.2591 98.6224 50.388 98.6436 50.5911 99.1256C50.6232 99.2014 50.6627 99.2841 50.7257 99.3391C50.7966 99.4008 50.9123 99.4232 50.9968 99.3781C51.0712 99.3386 51.1094 99.2538 51.1248 99.1745C51.1361 99.115 51.1383 99.0475 51.1253 98.988C51.0856 98.8059 51.0705 98.5785 51.0606 98.4279L51.0506 98.3001C51.0129 98.0641 50.9127 97.9444 50.7531 97.9444C50.7071 97.9444 50.6594 97.9473 50.5975 97.9508C50.4962 97.9569 50.3528 97.9662 50.0983 97.9662C49.886 97.9662 49.4031 97.9713 48.9057 97.9765C48.3803 97.9819 47.8386 97.9881 47.5859 97.9881C47.4017 97.9881 47.2487 97.9784 47.1082 97.97C46.9811 97.9624 46.8642 97.9553 46.7448 97.9553C46.5358 97.9553 46.3901 98.0606 46.3901 98.2117C46.3901 98.2989 46.4309 98.4533 46.7011 98.5077C46.9667 98.5664 47.0565 98.5865 47.0565 99.1728C47.0565 101.484 47.0454 102.532 47.0017 104.268C46.9937 104.635 46.8787 104.719 46.5561 104.773C46.4385 104.794 46.1934 104.839 46.1934 105.059C46.1934 105.106 46.2125 105.338 46.5922 105.338C46.6383 105.338 46.7476 105.331 46.8862 105.321C47.1105 105.305 47.4164 105.283 47.6405 105.283C48.0587 105.283 48.5532 105.293 49.0791 105.303C49.6803 105.315 50.3217 105.327 50.9382 105.327C51.0327 105.327 51.1654 105.287 51.2611 105.096C51.3144 104.991 51.3683 104.792 51.4299 104.562C51.4578 104.458 51.4863 104.351 51.5137 104.259C51.5347 104.189 51.5546 104.118 51.5508 104.044C51.5461 103.95 51.492 103.856 51.4011 103.814Z" fill="#1D1D1D"/>
<path d="M61.083 97.9553C61.0341 97.9553 60.9664 97.96 60.8825 97.9664C60.6775 97.9815 60.3276 97.9915 59.9991 97.9705C59.5174 97.9402 59.2432 97.9844 59.2432 98.2228C59.2432 98.4274 59.443 98.4774 59.6019 98.5171C59.8716 98.5867 60.0074 98.6215 60.0074 99.1642L60.0293 101C60.0411 101.913 60.0536 102.894 60.0591 103.442C58.8469 102.085 56.2604 99.1497 55.6075 98.3058C55.4474 98.1008 55.3588 97.9882 55.1971 97.9882C54.9779 97.9882 54.7217 97.9706 54.4993 97.9556C54.321 97.9438 54.1637 97.9336 54.0612 97.9336C53.7677 97.9336 53.6191 98.0269 53.6191 98.2118C53.6191 98.4559 53.8765 98.493 53.9953 98.5098C54.24 98.5507 54.3337 98.5964 54.4397 98.6777C54.4893 98.7162 54.5581 98.7693 54.5581 99.315C54.5581 100.011 54.4695 103.712 54.4386 104.081C54.3885 104.659 54.3304 104.675 53.9965 104.769C53.8508 104.809 53.6517 104.863 53.6517 105.07C53.6517 105.192 53.7188 105.338 54.039 105.338C54.0676 105.338 54.1276 105.332 54.2079 105.323C54.4766 105.294 54.9947 105.285 55.3135 105.316C55.9237 105.376 56.0328 105.223 56.0328 105.07C56.0328 104.849 55.816 104.79 55.6897 104.755C55.4835 104.697 55.321 104.601 55.2818 104.515C55.2098 104.361 55.1801 104.117 55.1801 103.672C55.1801 103.433 55.1888 102.375 55.1975 101.335C55.2034 100.654 55.2086 99.9803 55.2115 99.5505C55.8085 100.247 56.5429 101.097 57.2593 101.926C58.4283 103.279 59.5325 104.556 59.9332 105.046L59.9788 105.101C60.0716 105.215 60.1618 105.337 60.2702 105.436C60.3493 105.509 60.4702 105.551 60.5739 105.504C60.657 105.467 60.7042 105.379 60.7217 105.293C60.7425 105.192 60.7321 105.088 60.7283 104.986C60.7144 104.624 60.7184 104.24 60.7224 103.756C60.7252 103.47 60.7283 103.149 60.7283 102.777C60.7283 101.617 60.7526 99.3023 60.7987 98.9594C60.836 98.711 60.8518 98.6081 61.1366 98.5133L61.186 98.4956C61.2821 98.4623 61.4599 98.4005 61.4599 98.2118C61.4599 98.0949 61.3947 97.9553 61.083 97.9553Z" fill="#1D1D1D"/>
</g>
<defs>
<clipPath id="clip0_4720_3922">
<rect width="134.813" height="31.7545" fill="white" transform="translate(22.1875 73.7695)"/>
</clipPath>
</defs>
</svg>
